<svg xmlns="http://www.w3.org/2000/svg" width="38" height="38" viewBox="0 0 38 38" fill="none" class="arrow-color"><path d="M18.75 0C15.0416 0 11.4165 1.09967 8.33307 3.15994C5.24965 5.22022 2.84641 8.14857 1.42727 11.5747C0.00812379 15.0008 -0.363188 18.7708 0.360285 22.4079C1.08376 26.0451 2.86952 29.386 5.49176 32.0083C8.11399 34.6305 11.4549 36.4162 15.0921 37.1397C18.7292 37.8632 22.4992 37.4919 25.9253 36.0727C29.3514 34.6536 32.2798 32.2504 34.3401 29.1669C36.4003 26.0835 37.5 22.4584 37.5 18.75C37.4945 13.7789 35.5174 9.0129 32.0022 5.49778C28.4871 1.98265 23.7211 0.00545924 18.75 0ZM18.75 36C15.3383 36 12.0032 34.9883 9.16642 33.0929C6.32967 31.1974 4.1187 28.5033 2.81309 25.3513C1.50747 22.1993 1.16587 18.7309 1.83146 15.3847C2.49706 12.0385 4.13996 8.96486 6.55242 6.55241C8.96487 4.13995 12.0385 2.49705 15.3847 1.83145C18.7309 1.16586 22.1993 1.50747 25.3513 2.81308C28.5033 4.11869 31.1974 6.32966 33.0929 9.16641C34.9883 12.0032 36 15.3383 36 18.75C35.995 23.3235 34.176 27.7082 30.9421 30.9421C27.7082 34.176 23.3235 35.995 18.75 36ZM27 18.75C27 18.9489 26.921 19.1397 26.7803 19.2803C26.6397 19.421 26.4489 19.5 26.25 19.5H13.0613L17.7806 24.2194C17.9214 24.3601 18.0004 24.551 18.0004 24.75C18.0004 24.949 17.9214 25.1399 17.7806 25.2806C17.6399 25.4214 17.449 25.5004 17.25 25.5004C17.051 25.5004 16.8601 25.4214 16.7194 25.2806L10.7194 19.2806C10.6497 19.211 10.5943 19.1283 10.5566 19.0372C10.5188 18.9462 10.4994 18.8486 10.4994 18.75C10.4994 18.6514 10.5188 18.5538 10.5566 18.4628C10.5943 18.3717 10.6497 18.289 10.7194 18.2194L16.7194 12.2194C16.8601 12.0786 17.051 11.9996 17.25 11.9996C17.449 11.9996 17.6399 12.0786 17.7806 12.2194C17.9214 12.3601 18.0004 12.551 18.0004 12.75C18.0004 12.949 17.9214 13.1399 17.7806 13.2806L13.0613 18H26.25C26.4489 18 26.6397 18.079 26.7803 18.2197C26.921 18.3603 27 18.5511 27 18.75Z" fill=""/></svg>