<svg xmlns="http://www.w3.org/2000/svg" width="38" height="38" viewBox="0 0 38 38" fill="none" class="arrow-color"><path d="M19.25 0C22.9584 0 26.5835 1.09967 29.6669 3.15994C32.7504 5.22022 35.1536 8.14857 36.5727 11.5747C37.9919 15.0008 38.3632 18.7708 37.6397 22.4079C36.9162 26.0451 35.1305 29.386 32.5082 32.0082C29.886 34.6305 26.5451 36.4162 22.9079 37.1397C19.2708 37.8632 15.5008 37.4919 12.0747 36.0727C8.64857 34.6536 5.72022 32.2504 3.65995 29.1669C1.59967 26.0835 0.5 22.4584 0.5 18.75C0.50546 13.7789 2.48265 9.0129 5.99778 5.49778C9.5129 1.98265 14.2789 0.00545924 19.25 0ZM19.25 36C22.6617 36 25.9968 34.9883 28.8336 33.0928C31.6703 31.1974 33.8813 28.5033 35.1869 25.3513C36.4925 22.1993 36.8341 18.7309 36.1685 15.3847C35.5029 12.0385 33.86 8.96486 31.4476 6.55241C29.0351 4.13995 25.9615 2.49705 22.6153 1.83145C19.2691 1.16586 15.8007 1.50747 12.6487 2.81308C9.49668 4.11869 6.8026 6.32966 4.90715 9.16641C3.01169 12.0032 2 15.3383 2 18.75C2.00496 23.3235 3.82396 27.7082 7.05789 30.9421C10.2918 34.176 14.6765 35.995 19.25 36ZM11 18.75C11 18.9489 11.079 19.1397 11.2197 19.2803C11.3603 19.421 11.5511 19.5 11.75 19.5H24.9387L20.2194 24.2194C20.0786 24.3601 19.9996 24.551 19.9996 24.75C19.9996 24.949 20.0786 25.1399 20.2194 25.2806C20.3601 25.4213 20.551 25.5004 20.75 25.5004C20.949 25.5004 21.1399 25.4213 21.2806 25.2806L27.2806 19.2806C27.3504 19.211 27.4057 19.1283 27.4434 19.0372C27.4812 18.9462 27.5006 18.8486 27.5006 18.75C27.5006 18.6514 27.4812 18.5538 27.4434 18.4628C27.4057 18.3717 27.3504 18.289 27.2806 18.2194L21.2806 12.2194C21.1399 12.0786 20.949 11.9996 20.75 11.9996C20.551 11.9996 20.3601 12.0786 20.2194 12.2194C20.0786 12.3601 19.9996 12.551 19.9996 12.75C19.9996 12.949 20.0786 13.1399 20.2194 13.2806L24.9387 18H11.75C11.5511 18 11.3603 18.079 11.2197 18.2197C11.079 18.3603 11 18.5511 11 18.75Z" fill="#"/></svg>